<mxfile host="65bd71144e">
    <diagram id="t-udEQ2fh2zdYDoK3mJ6" name="Export This">
        <mxGraphModel dx="2154" dy="2112" grid="1" gridSize="10" guides="1" tooltips="1" connect="1" arrows="1" fold="1" page="1" pageScale="1" pageWidth="827" pageHeight="1169" math="0" shadow="0">
            <root>
                <mxCell id="0"/>
                <mxCell id="1" parent="0"/>
                <mxCell id="XpS2_1KgIddZ0LGJPAXD-20" value="" style="shape=agent;offsetSize=8;strokeWidth=2;" parent="1" vertex="1">
                    <mxGeometry x="-10" width="840" height="740" as="geometry"/>
                </mxCell>
                <mxCell id="XpS2_1KgIddZ0LGJPAXD-1" value="AutoBuild" style="shape=agent;offsetSize=8;strokeWidth=2;verticalAlign=bottom;" parent="1" vertex="1">
                    <mxGeometry x="10" y="270" width="800" height="440" as="geometry"/>
                </mxCell>
                <mxCell id="XpS2_1KgIddZ0LGJPAXD-2" value="" style="shape=actor;horizontalLabelPosition=right;align=left;labelPosition=right;strokeWidth=2;aspect=fixed;" parent="1" vertex="1">
                    <mxGeometry x="410" y="10" width="35" height="50" as="geometry"/>
                </mxCell>
                <mxCell id="XpS2_1KgIddZ0LGJPAXD-3" value="VCS" style="shape=agent;offsetSize=8;strokeWidth=2;" parent="1" vertex="1">
                    <mxGeometry x="203" y="120" width="100" height="60" as="geometry"/>
                </mxCell>
                <mxCell id="XpS2_1KgIddZ0LGJPAXD-4" value="" style="rounded=1;shape=useedge;edgeStyle=elbowEdgeStyle;elbow=horizontal;endArrow=none;useSignPosition=left;useSignDirection=south;entryX=0;entryY=0.5;entryDx=0;entryDy=0;exitX=0.5;exitY=0;exitDx=0;exitDy=0;" parent="1" source="XpS2_1KgIddZ0LGJPAXD-3" target="XpS2_1KgIddZ0LGJPAXD-2" edge="1">
                    <mxGeometry width="160" height="70" relative="1" as="geometry">
                        <mxPoint x="190" y="120" as="sourcePoint"/>
                        <mxPoint x="333" y="35" as="targetPoint"/>
                        <Array as="points">
                            <mxPoint x="260" y="80"/>
                        </Array>
                    </mxGeometry>
                </mxCell>
                <mxCell id="XpS2_1KgIddZ0LGJPAXD-5" value="VCS Event" style="edgeLabel;html=1;align=center;verticalAlign=middle;resizable=0;points=[];" parent="XpS2_1KgIddZ0LGJPAXD-4" vertex="1" connectable="0">
                    <mxGeometry x="-0.4502" y="20" relative="1" as="geometry">
                        <mxPoint x="-20" y="10" as="offset"/>
                    </mxGeometry>
                </mxCell>
                <mxCell id="XpS2_1KgIddZ0LGJPAXD-6" value="" style="rounded=1;shape=useedge;edgeStyle=elbowEdgeStyle;elbow=horizontal;endArrow=none;useSignPosition=left;useSignDirection=south;entryX=1;entryY=0.5;entryDx=0;entryDy=0;exitX=0.25;exitY=0;exitDx=0;exitDy=0;" parent="1" source="XpS2_1KgIddZ0LGJPAXD-14" target="XpS2_1KgIddZ0LGJPAXD-2" edge="1">
                    <mxGeometry width="160" height="70" relative="1" as="geometry">
                        <mxPoint x="608.5" y="270" as="sourcePoint"/>
                        <mxPoint x="500" y="35" as="targetPoint"/>
                        <Array as="points">
                            <mxPoint x="616" y="150"/>
                        </Array>
                    </mxGeometry>
                </mxCell>
                <mxCell id="XpS2_1KgIddZ0LGJPAXD-7" value="Build Pipeline" style="edgeLabel;html=1;align=center;verticalAlign=middle;resizable=0;points=[];" parent="XpS2_1KgIddZ0LGJPAXD-6" vertex="1" connectable="0">
                    <mxGeometry x="-0.2497" y="23" relative="1" as="geometry">
                        <mxPoint x="-23" y="28" as="offset"/>
                    </mxGeometry>
                </mxCell>
                <mxCell id="XpS2_1KgIddZ0LGJPAXD-8" value="VCS Handler" style="shape=agent;offsetSize=8;strokeWidth=2;" parent="1" vertex="1">
                    <mxGeometry x="30" y="290" width="330" height="110" as="geometry"/>
                </mxCell>
                <mxCell id="XpS2_1KgIddZ0LGJPAXD-9" value="Job Module" style="shape=agent;offsetSize=8;strokeWidth=2;" parent="1" vertex="1">
                    <mxGeometry x="30" y="510" width="450" height="160" as="geometry"/>
                </mxCell>
                <mxCell id="XpS2_1KgIddZ0LGJPAXD-10" value="" style="shape=useedge;vertical=true;edgeStyle=none;endArrow=none;useSignPosition=left;useSignDirection=south;entryX=0.5;entryY=1;entryDx=0;entryDy=0;exitX=0.67;exitY=0;exitDx=0;exitDy=0;exitPerimeter=0;" parent="1" source="XpS2_1KgIddZ0LGJPAXD-8" target="XpS2_1KgIddZ0LGJPAXD-3" edge="1">
                    <mxGeometry height="160" relative="1" as="geometry">
                        <mxPoint x="470" y="440" as="sourcePoint"/>
                        <mxPoint x="470" y="280" as="targetPoint"/>
                    </mxGeometry>
                </mxCell>
                <mxCell id="XpS2_1KgIddZ0LGJPAXD-11" value="VCS Hook" style="edgeLabel;html=1;align=center;verticalAlign=middle;resizable=0;points=[];" parent="XpS2_1KgIddZ0LGJPAXD-10" vertex="1" connectable="0">
                    <mxGeometry x="0.1018" y="23" relative="1" as="geometry">
                        <mxPoint x="-19" as="offset"/>
                    </mxGeometry>
                </mxCell>
                <mxCell id="XpS2_1KgIddZ0LGJPAXD-12" value="" style="shape=useedge;vertical=true;edgeStyle=none;endArrow=none;useSignPosition=left;useSignDirection=south;entryX=0.5;entryY=1;entryDx=0;entryDy=0;exitX=0.876;exitY=-0.006;exitDx=0;exitDy=0;exitPerimeter=0;" parent="1" source="XpS2_1KgIddZ0LGJPAXD-9" target="XpS2_1KgIddZ0LGJPAXD-2" edge="1">
                    <mxGeometry height="160" relative="1" as="geometry">
                        <mxPoint x="470" y="440" as="sourcePoint"/>
                        <mxPoint x="470" y="280" as="targetPoint"/>
                    </mxGeometry>
                </mxCell>
                <mxCell id="XpS2_1KgIddZ0LGJPAXD-13" value="Run/ Rerun Job" style="edgeLabel;html=1;align=center;verticalAlign=middle;resizable=0;points=[];" parent="XpS2_1KgIddZ0LGJPAXD-12" vertex="1" connectable="0">
                    <mxGeometry x="0.0347" y="21" relative="1" as="geometry">
                        <mxPoint x="-27" as="offset"/>
                    </mxGeometry>
                </mxCell>
                <mxCell id="XpS2_1KgIddZ0LGJPAXD-14" value="Pipeline Module" style="shape=agent;offsetSize=8;strokeWidth=2;" parent="1" vertex="1">
                    <mxGeometry x="560" y="290" width="230" height="380" as="geometry"/>
                </mxCell>
                <mxCell id="XpS2_1KgIddZ0LGJPAXD-15" value="" style="shape=useedge;endArrow=none;edgeStyle=none;useSignPosition=up;useSignDirection=east;exitX=1;exitY=0.5;exitDx=0;exitDy=0;entryX=-0.012;entryY=0.551;entryDx=0;entryDy=0;entryPerimeter=0;" parent="1" source="XpS2_1KgIddZ0LGJPAXD-9" target="XpS2_1KgIddZ0LGJPAXD-14" edge="1">
                    <mxGeometry width="160" relative="1" as="geometry">
                        <mxPoint x="410" y="550" as="sourcePoint"/>
                        <mxPoint x="600" y="555" as="targetPoint"/>
                    </mxGeometry>
                </mxCell>
                <mxCell id="XpS2_1KgIddZ0LGJPAXD-16" value="Jobs" style="edgeLabel;html=1;align=center;verticalAlign=middle;resizable=0;points=[];" parent="XpS2_1KgIddZ0LGJPAXD-15" vertex="1" connectable="0">
                    <mxGeometry x="-0.3374" y="-12" relative="1" as="geometry">
                        <mxPoint x="1" as="offset"/>
                    </mxGeometry>
                </mxCell>
                <mxCell id="XpS2_1KgIddZ0LGJPAXD-17" value="" style="shape=queue;strokeWidth=2;verticalLabelPosition=bottom;useSignDirection=east;rotation=90;" parent="1" vertex="1">
                    <mxGeometry x="30" y="440" width="110" height="30" as="geometry"/>
                </mxCell>
                <mxCell id="XpS2_1KgIddZ0LGJPAXD-18" value="" style="shape=useedge;vertical=true;edgeStyle=none;endArrow=none;useSignPosition=left;useSignDirection=south;exitX=0.75;exitY=1;exitDx=0;exitDy=0;entryX=0.544;entryY=-0.006;entryDx=0;entryDy=0;entryPerimeter=0;" parent="1" source="XpS2_1KgIddZ0LGJPAXD-8" target="XpS2_1KgIddZ0LGJPAXD-9" edge="1">
                    <mxGeometry height="160" relative="1" as="geometry">
                        <mxPoint x="420" y="520" as="sourcePoint"/>
                        <mxPoint x="420" y="360" as="targetPoint"/>
                    </mxGeometry>
                </mxCell>
                <mxCell id="XpS2_1KgIddZ0LGJPAXD-19" value="Status" style="edgeLabel;html=1;align=center;verticalAlign=middle;resizable=0;points=[];" parent="XpS2_1KgIddZ0LGJPAXD-18" vertex="1" connectable="0">
                    <mxGeometry x="0.1087" y="-18" relative="1" as="geometry">
                        <mxPoint x="-8" as="offset"/>
                    </mxGeometry>
                </mxCell>
                <mxCell id="0.14" value="Best viewed with the &lt;a href=&quot;https://github.com/ariel-bentu/tam-drawio&quot;&gt;TAM plugin&lt;/a&gt;" style="text;html=1;shape=tamPluginMissing;" parent="1" vertex="1" connectable="0">
                    <mxGeometry x="310" y="770" width="200" height="25" as="geometry"/>
                </mxCell>
            </root>
        </mxGraphModel>
    </diagram>
    <diagram id="40exUl0vIfyb5U9XLuty" name="Level0">
        <mxGraphModel dx="1194" dy="849" grid="1" gridSize="10" guides="1" tooltips="1" connect="1" arrows="1" fold="1" page="1" pageScale="1" pageWidth="827" pageHeight="1169" math="0" shadow="0">
            <root>
                <mxCell id="0"/>
                <mxCell id="1" parent="0"/>
                <mxCell id="WJ4CdZOc8dhhOsGUsSus-2" value="Best viewed with the &lt;a href=&quot;https://github.com/ariel-bentu/tam-drawio&quot;&gt;TAM plugin&lt;/a&gt;" style="text;html=1;shape=tamPluginMissing;" parent="1" vertex="1" connectable="0">
                    <mxGeometry x="350" y="447.03" width="200" height="25" as="geometry"/>
                </mxCell>
                <mxCell id="WJ4CdZOc8dhhOsGUsSus-10" value="AutoBuild" style="shape=agent;offsetSize=8;strokeWidth=2;verticalAlign=middle;" parent="1" vertex="1">
                    <mxGeometry x="10" y="270" width="880" height="130" as="geometry"/>
                </mxCell>
                <mxCell id="WJ4CdZOc8dhhOsGUsSus-11" value="" style="shape=actor;horizontalLabelPosition=right;align=left;labelPosition=right;strokeWidth=2;aspect=fixed;" parent="1" vertex="1">
                    <mxGeometry x="410" y="10" width="35" height="50" as="geometry"/>
                </mxCell>
                <mxCell id="WJ4CdZOc8dhhOsGUsSus-12" value="VCS" style="shape=agent;offsetSize=8;strokeWidth=2;" parent="1" vertex="1">
                    <mxGeometry x="203" y="120" width="100" height="60" as="geometry"/>
                </mxCell>
                <mxCell id="WJ4CdZOc8dhhOsGUsSus-13" value="" style="rounded=1;shape=useedge;edgeStyle=elbowEdgeStyle;elbow=horizontal;endArrow=none;useSignPosition=left;useSignDirection=south;entryX=0;entryY=0.5;entryDx=0;entryDy=0;exitX=0.5;exitY=0;exitDx=0;exitDy=0;" parent="1" source="WJ4CdZOc8dhhOsGUsSus-12" target="WJ4CdZOc8dhhOsGUsSus-11" edge="1">
                    <mxGeometry width="160" height="70" relative="1" as="geometry">
                        <mxPoint x="190" y="120" as="sourcePoint"/>
                        <mxPoint x="333" y="35" as="targetPoint"/>
                        <Array as="points">
                            <mxPoint x="260" y="80"/>
                        </Array>
                    </mxGeometry>
                </mxCell>
                <mxCell id="WJ4CdZOc8dhhOsGUsSus-14" value="VCS Event" style="edgeLabel;html=1;align=center;verticalAlign=middle;resizable=0;points=[];" parent="WJ4CdZOc8dhhOsGUsSus-13" vertex="1" connectable="0">
                    <mxGeometry x="-0.4502" y="20" relative="1" as="geometry">
                        <mxPoint x="-20" y="18" as="offset"/>
                    </mxGeometry>
                </mxCell>
                <mxCell id="WJ4CdZOc8dhhOsGUsSus-15" value="" style="rounded=1;shape=useedge;edgeStyle=elbowEdgeStyle;elbow=horizontal;endArrow=none;useSignPosition=left;useSignDirection=south;entryX=1;entryY=0.5;entryDx=0;entryDy=0;exitX=0.75;exitY=0;exitDx=0;exitDy=0;" parent="1" target="WJ4CdZOc8dhhOsGUsSus-11" edge="1">
                    <mxGeometry width="160" height="70" relative="1" as="geometry">
                        <mxPoint x="608.5" y="270" as="sourcePoint"/>
                        <mxPoint x="500" y="35" as="targetPoint"/>
                        <Array as="points">
                            <mxPoint x="616" y="150"/>
                        </Array>
                    </mxGeometry>
                </mxCell>
                <mxCell id="WJ4CdZOc8dhhOsGUsSus-16" value="Build Pipeline" style="edgeLabel;html=1;align=center;verticalAlign=middle;resizable=0;points=[];" parent="WJ4CdZOc8dhhOsGUsSus-15" vertex="1" connectable="0">
                    <mxGeometry x="-0.2497" y="23" relative="1" as="geometry">
                        <mxPoint x="-23" y="28" as="offset"/>
                    </mxGeometry>
                </mxCell>
                <mxCell id="WJ4CdZOc8dhhOsGUsSus-19" value="" style="shape=useedge;vertical=true;edgeStyle=none;endArrow=none;useSignPosition=left;useSignDirection=south;entryX=0.5;entryY=1;entryDx=0;entryDy=0;" parent="1" target="WJ4CdZOc8dhhOsGUsSus-12" edge="1">
                    <mxGeometry height="160" relative="1" as="geometry">
                        <mxPoint x="253" y="270" as="sourcePoint"/>
                        <mxPoint x="470" y="280" as="targetPoint"/>
                    </mxGeometry>
                </mxCell>
                <mxCell id="WJ4CdZOc8dhhOsGUsSus-20" value="VCS Hook" style="edgeLabel;html=1;align=center;verticalAlign=middle;resizable=0;points=[];" parent="WJ4CdZOc8dhhOsGUsSus-19" vertex="1" connectable="0">
                    <mxGeometry x="0.1018" y="23" relative="1" as="geometry">
                        <mxPoint x="-19" as="offset"/>
                    </mxGeometry>
                </mxCell>
                <mxCell id="WJ4CdZOc8dhhOsGUsSus-21" value="" style="shape=useedge;vertical=true;edgeStyle=none;endArrow=none;useSignPosition=left;useSignDirection=south;entryX=0.5;entryY=1;entryDx=0;entryDy=0;exitX=0.47;exitY=-0.004;exitDx=0;exitDy=0;exitPerimeter=0;" parent="1" source="WJ4CdZOc8dhhOsGUsSus-10" target="WJ4CdZOc8dhhOsGUsSus-11" edge="1">
                    <mxGeometry height="160" relative="1" as="geometry">
                        <mxPoint x="428" y="417.03" as="sourcePoint"/>
                        <mxPoint x="470" y="280" as="targetPoint"/>
                    </mxGeometry>
                </mxCell>
                <mxCell id="WJ4CdZOc8dhhOsGUsSus-22" value="Run/ Rerun Job" style="edgeLabel;html=1;align=center;verticalAlign=middle;resizable=0;points=[];" parent="WJ4CdZOc8dhhOsGUsSus-21" vertex="1" connectable="0">
                    <mxGeometry x="0.0347" y="21" relative="1" as="geometry">
                        <mxPoint x="-27" as="offset"/>
                    </mxGeometry>
                </mxCell>
            </root>
        </mxGraphModel>
    </diagram>
    <diagram name="Level1" id="Ok_z0AfAnbf14_W0Ty0E">
        <mxGraphModel dx="1194" dy="849" grid="1" gridSize="10" guides="1" tooltips="1" connect="1" arrows="1" fold="1" page="1" pageScale="1" pageWidth="827" pageHeight="1169" math="0" shadow="0">
            <root>
                <mxCell id="r8It0ion48g9bqUEctL1-0"/>
                <mxCell id="r8It0ion48g9bqUEctL1-1" parent="r8It0ion48g9bqUEctL1-0"/>
                <mxCell id="r8It0ion48g9bqUEctL1-2" value="AutoBuild" style="shape=agent;offsetSize=8;strokeWidth=2;verticalAlign=bottom;" parent="r8It0ion48g9bqUEctL1-1" vertex="1">
                    <mxGeometry x="10" y="270" width="800" height="440" as="geometry"/>
                </mxCell>
                <mxCell id="r8It0ion48g9bqUEctL1-3" value="Best viewed with the &lt;a href=&quot;https://github.com/ariel-bentu/tam-drawio&quot;&gt;TAM plugin&lt;/a&gt;" style="text;html=1;shape=tamPluginMissing;" parent="r8It0ion48g9bqUEctL1-1" vertex="1" connectable="0">
                    <mxGeometry x="310" y="740" width="200" height="25" as="geometry"/>
                </mxCell>
                <mxCell id="r8It0ion48g9bqUEctL1-4" value="" style="shape=actor;horizontalLabelPosition=right;align=left;labelPosition=right;strokeWidth=2;aspect=fixed;" parent="r8It0ion48g9bqUEctL1-1" vertex="1">
                    <mxGeometry x="410" y="10" width="35" height="50" as="geometry"/>
                </mxCell>
                <mxCell id="r8It0ion48g9bqUEctL1-5" value="VCS" style="shape=agent;offsetSize=8;strokeWidth=2;" parent="r8It0ion48g9bqUEctL1-1" vertex="1">
                    <mxGeometry x="203" y="120" width="100" height="60" as="geometry"/>
                </mxCell>
                <mxCell id="r8It0ion48g9bqUEctL1-6" value="" style="rounded=1;shape=useedge;edgeStyle=elbowEdgeStyle;elbow=horizontal;endArrow=none;useSignPosition=left;useSignDirection=south;entryX=0;entryY=0.5;entryDx=0;entryDy=0;exitX=0.5;exitY=0;exitDx=0;exitDy=0;" parent="r8It0ion48g9bqUEctL1-1" source="r8It0ion48g9bqUEctL1-5" target="r8It0ion48g9bqUEctL1-4" edge="1">
                    <mxGeometry width="160" height="70" relative="1" as="geometry">
                        <mxPoint x="190" y="120" as="sourcePoint"/>
                        <mxPoint x="333" y="35" as="targetPoint"/>
                        <Array as="points">
                            <mxPoint x="260" y="80"/>
                        </Array>
                    </mxGeometry>
                </mxCell>
                <mxCell id="kZ-epyqTe8IM9jZ4-b4g-0" value="VCS Event" style="edgeLabel;html=1;align=center;verticalAlign=middle;resizable=0;points=[];" parent="r8It0ion48g9bqUEctL1-6" vertex="1" connectable="0">
                    <mxGeometry x="-0.4502" y="20" relative="1" as="geometry">
                        <mxPoint x="-20" y="10" as="offset"/>
                    </mxGeometry>
                </mxCell>
                <mxCell id="r8It0ion48g9bqUEctL1-7" value="" style="rounded=1;shape=useedge;edgeStyle=elbowEdgeStyle;elbow=horizontal;endArrow=none;useSignPosition=left;useSignDirection=south;entryX=1;entryY=0.5;entryDx=0;entryDy=0;exitX=0.25;exitY=0;exitDx=0;exitDy=0;" parent="r8It0ion48g9bqUEctL1-1" source="QFPLWDyup74I9JNrI9wq-0" target="r8It0ion48g9bqUEctL1-4" edge="1">
                    <mxGeometry width="160" height="70" relative="1" as="geometry">
                        <mxPoint x="608.5" y="270" as="sourcePoint"/>
                        <mxPoint x="500" y="35" as="targetPoint"/>
                        <Array as="points">
                            <mxPoint x="616" y="150"/>
                        </Array>
                    </mxGeometry>
                </mxCell>
                <mxCell id="kZ-epyqTe8IM9jZ4-b4g-2" value="Build Pipeline" style="edgeLabel;html=1;align=center;verticalAlign=middle;resizable=0;points=[];" parent="r8It0ion48g9bqUEctL1-7" vertex="1" connectable="0">
                    <mxGeometry x="-0.2497" y="23" relative="1" as="geometry">
                        <mxPoint x="-23" y="28" as="offset"/>
                    </mxGeometry>
                </mxCell>
                <mxCell id="kZ-epyqTe8IM9jZ4-b4g-5" value="VCS Handler" style="shape=agent;offsetSize=8;strokeWidth=2;" parent="r8It0ion48g9bqUEctL1-1" vertex="1">
                    <mxGeometry x="30" y="290" width="330" height="110" as="geometry"/>
                </mxCell>
                <mxCell id="kZ-epyqTe8IM9jZ4-b4g-6" value="Job Module" style="shape=agent;offsetSize=8;strokeWidth=2;" parent="r8It0ion48g9bqUEctL1-1" vertex="1">
                    <mxGeometry x="30" y="510" width="450" height="160" as="geometry"/>
                </mxCell>
                <mxCell id="kZ-epyqTe8IM9jZ4-b4g-7" value="" style="shape=useedge;vertical=true;edgeStyle=none;endArrow=none;useSignPosition=left;useSignDirection=south;entryX=0.5;entryY=1;entryDx=0;entryDy=0;exitX=0.67;exitY=0;exitDx=0;exitDy=0;exitPerimeter=0;" parent="r8It0ion48g9bqUEctL1-1" source="kZ-epyqTe8IM9jZ4-b4g-5" target="r8It0ion48g9bqUEctL1-5" edge="1">
                    <mxGeometry height="160" relative="1" as="geometry">
                        <mxPoint x="470" y="440" as="sourcePoint"/>
                        <mxPoint x="470" y="280" as="targetPoint"/>
                    </mxGeometry>
                </mxCell>
                <mxCell id="kZ-epyqTe8IM9jZ4-b4g-8" value="VCS Hook" style="edgeLabel;html=1;align=center;verticalAlign=middle;resizable=0;points=[];" parent="kZ-epyqTe8IM9jZ4-b4g-7" vertex="1" connectable="0">
                    <mxGeometry x="0.1018" y="23" relative="1" as="geometry">
                        <mxPoint x="-19" as="offset"/>
                    </mxGeometry>
                </mxCell>
                <mxCell id="kZ-epyqTe8IM9jZ4-b4g-9" value="" style="shape=useedge;vertical=true;edgeStyle=none;endArrow=none;useSignPosition=left;useSignDirection=south;entryX=0.5;entryY=1;entryDx=0;entryDy=0;exitX=0.876;exitY=-0.006;exitDx=0;exitDy=0;exitPerimeter=0;" parent="r8It0ion48g9bqUEctL1-1" source="kZ-epyqTe8IM9jZ4-b4g-6" target="r8It0ion48g9bqUEctL1-4" edge="1">
                    <mxGeometry height="160" relative="1" as="geometry">
                        <mxPoint x="470" y="440" as="sourcePoint"/>
                        <mxPoint x="470" y="280" as="targetPoint"/>
                    </mxGeometry>
                </mxCell>
                <mxCell id="kZ-epyqTe8IM9jZ4-b4g-10" value="Run/ Rerun Job" style="edgeLabel;html=1;align=center;verticalAlign=middle;resizable=0;points=[];" parent="kZ-epyqTe8IM9jZ4-b4g-9" vertex="1" connectable="0">
                    <mxGeometry x="0.0347" y="21" relative="1" as="geometry">
                        <mxPoint x="-27" as="offset"/>
                    </mxGeometry>
                </mxCell>
                <mxCell id="QFPLWDyup74I9JNrI9wq-0" value="Pipeline Module" style="shape=agent;offsetSize=8;strokeWidth=2;" parent="r8It0ion48g9bqUEctL1-1" vertex="1">
                    <mxGeometry x="560" y="290" width="230" height="380" as="geometry"/>
                </mxCell>
                <mxCell id="QFPLWDyup74I9JNrI9wq-8" value="" style="shape=useedge;endArrow=none;edgeStyle=none;useSignPosition=up;useSignDirection=east;exitX=1;exitY=0.5;exitDx=0;exitDy=0;entryX=-0.012;entryY=0.551;entryDx=0;entryDy=0;entryPerimeter=0;" parent="r8It0ion48g9bqUEctL1-1" source="kZ-epyqTe8IM9jZ4-b4g-6" target="QFPLWDyup74I9JNrI9wq-0" edge="1">
                    <mxGeometry width="160" relative="1" as="geometry">
                        <mxPoint x="410" y="550" as="sourcePoint"/>
                        <mxPoint x="600" y="555" as="targetPoint"/>
                    </mxGeometry>
                </mxCell>
                <mxCell id="QFPLWDyup74I9JNrI9wq-19" value="Jobs" style="edgeLabel;html=1;align=center;verticalAlign=middle;resizable=0;points=[];" parent="QFPLWDyup74I9JNrI9wq-8" vertex="1" connectable="0">
                    <mxGeometry x="-0.3374" y="-12" relative="1" as="geometry">
                        <mxPoint x="1" as="offset"/>
                    </mxGeometry>
                </mxCell>
                <mxCell id="FoKvjP8hr89TysI1zap6-0" value="" style="shape=queue;strokeWidth=2;verticalLabelPosition=bottom;useSignDirection=east;rotation=90;" vertex="1" parent="r8It0ion48g9bqUEctL1-1">
                    <mxGeometry x="30" y="440" width="110" height="30" as="geometry"/>
                </mxCell>
                <mxCell id="sQQ7SYQZFF0lD23NmJ56-0" value="" style="shape=useedge;vertical=true;edgeStyle=none;endArrow=none;useSignPosition=left;useSignDirection=south;exitX=0.75;exitY=1;exitDx=0;exitDy=0;entryX=0.544;entryY=-0.006;entryDx=0;entryDy=0;entryPerimeter=0;" edge="1" parent="r8It0ion48g9bqUEctL1-1">
                    <mxGeometry height="160" relative="1" as="geometry">
                        <mxPoint x="278" y="400" as="sourcePoint"/>
                        <mxPoint x="275" y="509" as="targetPoint"/>
                    </mxGeometry>
                </mxCell>
                <mxCell id="sQQ7SYQZFF0lD23NmJ56-1" value="Status" style="edgeLabel;html=1;align=center;verticalAlign=middle;resizable=0;points=[];" vertex="1" connectable="0" parent="sQQ7SYQZFF0lD23NmJ56-0">
                    <mxGeometry x="0.1087" y="-18" relative="1" as="geometry">
                        <mxPoint x="-8" as="offset"/>
                    </mxGeometry>
                </mxCell>
            </root>
        </mxGraphModel>
    </diagram>
</mxfile>